# Object Export From Tinkercad Server 2015

mtllib obj.mtl

o obj_0
v -0.9 		-5.778 		13.312
v -2 		-5.778 		13.312
v -2 		-6 		13.298
v -0.9 		-6 		13.298
v -0.9 		-5.559 		13.356
v -2 		-5.559 		13.356
v -0.9 		-5.348 		13.427
v -2 		-5.348 		13.427
v -0.9 		-5.149 		13.526
v -2 		-5.149 		13.526
v -0.9 		-4.964 		13.649
v -2 		-4.964 		13.649
v -0.9 		-4.796 		13.796
v -2 		-4.796 		13.796
v -0.9 		-4.649 		13.964
v -2 		-4.649 		13.964
v -0.9 		-4.526 		14.149
v -2 		-4.526 		14.149
v -0.9 		-4.427 		14.348
v -2 		-4.427 		14.348
v -0.9 		-4.356 		14.559
v -2 		-4.356 		14.559
v -0.9 		-4.312 		14.778
v -2 		-4.312 		14.778
v -0.9 		-4.298 		15
v -2 		-4.298 		15
v -0.9 		-4.312 		15.222
v -2 		-4.312 		15.222
v -0.9 		-4.356 		15.441
v -2 		-4.356 		15.441
v -0.9 		-4.427 		15.652
v -2 		-4.427 		15.652
v -0.9 		-4.526 		15.851
v -2 		-4.526 		15.851
v -0.9 		-4.649 		16.036
v -2 		-4.649 		16.036
v -0.9 		-4.796 		16.204
v -2 		-4.796 		16.204
v -0.9 		-4.964 		16.351
v -2 		-4.964 		16.351
v -0.9 		-5.149 		16.474
v -2 		-5.149 		16.474
v -0.9 		-5.348 		16.573
v -2 		-5.348 		16.573
v -0.9 		-5.559 		16.644
v -2 		-5.559 		16.644
v -0.9 		-5.778 		16.688
v -2 		-5.778 		16.688
v -0.9 		-6 		16.703
v -2 		-6 		16.703
v -0.9 		-6.222 		16.688
v -2 		-6.222 		16.688
v -0.9 		-6.441 		16.644
v -2 		-6.441 		16.644
v -0.9 		-6.652 		16.573
v -2 		-6.652 		16.573
v -0.9 		-6.851 		16.474
v -2 		-6.851 		16.474
v 49 		78 		4
v 49 		-22 		4
v -31 		78 		4
v -31 		-22 		4
v 49 		-22 		0
v -31 		-22 		0
v -31 		78 		0
v 49 		78 		0
v 20 		-5.149 		16.474
v 20 		-5.348 		16.573
v 20 		-5.559 		16.644
v 20 		-5.778 		16.688
v 20 		-6 		16.703
v 20 		-6.222 		16.688
v 20 		-6.441 		16.644
v 20 		-6.652 		16.573
v 20 		-6.851 		16.474
v 20 		-4.298 		15
v 20 		-1 		13.298
v 20 		-1 		25
v 20 		-6 		13.298
v 20 		-1 		5
v 20 		-11 		25
v 20 		-11 		5
v 20 		-7.703 		15
v 18.9 		-7.474 		14.149
v 18.9 		-7.351 		13.964
v 18.9 		-7.204 		13.796
v 18.9 		-7.036 		13.649
v 18.9 		-6.851 		13.526
v 18.9 		-6.652 		13.427
v 18.9 		-6.441 		13.356
v 18.9 		-6.222 		13.312
v 18.9 		-7.703 		15
v 18.9 		-7.688 		14.778
v 18.9 		-7.644 		14.559
v 18.9 		-7.573 		14.348
v 18.9 		-7.036 		16.351
v 18.9 		-7.204 		16.204
v 18.9 		-7.351 		16.036
v 18.9 		-7.474 		15.851
v 18.9 		-7.573 		15.652
v 18.9 		-7.644 		15.441
v 18.9 		-7.688 		15.222
v 18.9 		-6 		13.298
v 18.9 		-5.778 		13.312
v 18.9 		-5.559 		13.356
v 18.9 		-5.348 		13.427
v 18.9 		-5.149 		13.526
v 18.9 		-4.964 		13.649
v 18.9 		-4.796 		13.796
v 18.9 		-4.649 		13.964
v 18.9 		-4.526 		14.149
v 18.9 		-4.427 		14.348
v 20 		-7.474 		14.149
v 20 		-7.351 		13.964
v 20 		-7.204 		13.796
v 20 		-7.036 		13.649
v 20 		-6.851 		13.526
v 18.9 		-4.356 		14.559
v 20 		-6.652 		13.427
v 20 		-6.441 		13.356
v 18.9 		-4.312 		14.778
v 20 		-6.222 		13.312
v 18.9 		-4.298 		15
v 20 		-7.688 		14.778
v 18.9 		-4.312 		15.222
v 20 		-7.644 		14.559
v 18.9 		-4.356 		15.441
v 20 		-7.573 		14.348
v 18.9 		-4.427 		15.652
v 18.9 		-4.526 		15.851
v 20 		-7.036 		16.351
v 18.9 		-4.649 		16.036
v 18.9 		-4.796 		16.204
v 20 		-7.204 		16.204
v 18.9 		-4.964 		16.351
v 20 		-7.351 		16.036
v 20 		-7.474 		15.851
v -0.9 		-6.441 		13.356
v -0.9 		-6.652 		13.427
v 20 		-7.573 		15.652
v 18.9 		-5.149 		16.474
v 20 		-7.644 		15.441
v -0.9 		-6.222 		13.312
v 20 		-7.688 		15.222
v 18.9 		-5.348 		16.573
v 18.9 		-5.559 		16.644
v 20 		-5.778 		13.312
v 18.9 		-5.778 		16.688
v 20 		-5.559 		13.356
v 18.9 		-6 		16.703
v 20 		-5.348 		13.427
v 20 		-5.149 		13.526
v 18.9 		-6.222 		16.688
v 20 		-4.964 		13.649
v 18.9 		-6.441 		16.644
v 20 		-4.796 		13.796
v 18.9 		-6.652 		16.573
v 20 		-4.649 		13.964
v 18.9 		-6.851 		16.474
v 20 		-4.526 		14.149
v 20 		-4.427 		14.348
v 20 		-4.356 		14.559
v 20 		-4.312 		14.778
v 20 		-4.312 		15.222
v 18.9 		-1 		25
v -0.9 		-7.688 		14.778
v 20 		-4.356 		15.441
v -0.9 		-7.703 		15
v 20 		-4.427 		15.652
v -0.9 		-7.644 		14.559
v 20 		-4.526 		15.851
v 20 		-4.649 		16.036
v -0.9 		-7.573 		14.348
v 20 		-4.796 		16.204
v 20 		-4.964 		16.351
v 18.9 		-1 		5
v -0.9 		-7.036 		16.351
v 18.9 		-11 		5
v 18.9 		-11 		25
v -0.9 		-7.204 		16.204
v -0.9 		-7.351 		16.036
v -0.9 		-7.474 		15.851
v -0.9 		-7.573 		15.652
v -0.9 		-7.644 		15.441
v -0.9 		-7.688 		15.222
v -0.9 		-1 		25
v -0.9 		-1 		5
v -0.9 		-11 		25
v -0.9 		-11 		5
v -2 		-7.474 		14.149
v -2 		-7.351 		13.964
v -2 		-7.204 		13.796
v -2 		-7.036 		13.649
v -2 		-6.851 		13.526
v -2 		-6.652 		13.427
v -2 		-6.441 		13.356
v -2 		-6.222 		13.312
v -2 		-7.703 		15
v -2 		-7.688 		14.778
v -2 		-7.644 		14.559
v -2 		-7.573 		14.348
v -2 		-7.036 		16.351
v -2 		-7.204 		16.204
v -2 		-7.351 		16.036
v -2 		-7.474 		15.851
v -2 		-7.573 		15.652
v -2 		-7.644 		15.441
v -2 		-7.688 		15.222
v -0.9 		-7.474 		14.149
v -0.9 		-7.351 		13.964
v -0.9 		-7.204 		13.796
v -0.9 		-7.036 		13.649
v -0.9 		-6.851 		13.526
v -2 		-1 		25
v -2 		-1 		13.298
v -2 		-1 		5
v -2 		-11 		5
v -2 		-11 		25
# 218 vertices

g group_0_15277357

usemtl color_15277357
s 0

f 1 	2 	3
f 1 	3 	4
f 5 	6 	2
f 5 	2 	1
f 7 	8 	6
f 7 	6 	5
f 9 	10 	8
f 9 	8 	7
f 11 	12 	10
f 11 	10 	9
f 13 	14 	12
f 13 	12 	11
f 15 	16 	14
f 15 	14 	13
f 17 	18 	16
f 17 	16 	15
f 18 	17 	20
f 19 	20 	17
f 21 	22 	20
f 21 	20 	19
f 23 	24 	22
f 23 	22 	21
f 25 	26 	24
f 25 	24 	23
f 27 	28 	26
f 27 	26 	25
f 29 	30 	28
f 29 	28 	27
f 31 	32 	30
f 31 	30 	29
f 33 	34 	32
f 33 	32 	31
f 35 	36 	34
f 35 	34 	33
f 37 	38 	36
f 37 	36 	35
f 38 	37 	39
f 38 	39 	40
f 40 	39 	42
f 42 	39 	41
f 42 	41 	43
f 42 	43 	44
f 44 	43 	45
f 44 	45 	46
f 46 	45 	47
f 46 	47 	48
f 48 	47 	49
f 48 	49 	50
f 50 	49 	51
f 50 	51 	52
f 52 	51 	53
f 52 	53 	54
f 54 	53 	55
f 54 	55 	56
f 56 	55 	57
f 56 	57 	58
f 58 	57 	202
f 61 	60 	59
f 60 	61 	62
f 63 	64 	65
f 63 	65 	66
f 64 	63 	60
f 60 	62 	64
f 59 	66 	65
f 59 	65 	61
f 69 	68 	78
f 67 	78 	68
f 72 	71 	81
f 74 	73 	81
f 137 	136 	81
f 73 	72 	81
f 78 	81 	71
f 70 	78 	71
f 70 	69 	78
f 67 	175 	78
f 152 	80 	154
f 151 	80 	152
f 126 	124 	82
f 124 	83 	82
f 81 	82 	83
f 83 	144 	81
f 81 	142 	140
f 140 	137 	81
f 85 	178 	84
f 86 	178 	85
f 87 	178 	86
f 88 	178 	87
f 89 	178 	88
f 90 	178 	89
f 91 	178 	90
f 84 	178 	95
f 94 	95 	178
f 100 	179 	99
f 102 	179 	101
f 92 	179 	102
f 107 	176 	106
f 109 	176 	108
f 110 	176 	109
f 112 	176 	111
f 110 	111 	176
f 107 	108 	176
f 60 	63 	66
f 60 	66 	59
f 61 	65 	64
f 61 	64 	62
f 114 	113 	82
f 115 	114 	82
f 116 	115 	82
f 117 	116 	82
f 121 	176 	118
f 120 	119 	82
f 119 	117 	82
f 122 	120 	82
f 165 	176 	123
f 113 	128 	82
f 126 	82 	128
f 130 	165 	129
f 132 	165 	130
f 127 	129 	165
f 75 	74 	81
f 40 	214 	38
f 131 	75 	81
f 134 	131 	81
f 139 	213 	189
f 136 	134 	81
f 138 	139 	189
f 145 	165 	141
f 142 	81 	144
f 79 	122 	82
f 141 	165 	135
f 133 	165 	132
f 148 	165 	146
f 147 	79 	80
f 82 	80 	79
f 149 	147 	80
f 77 	158 	80
f 151 	149 	80
f 157 	179 	155
f 156 	80 	158
f 154 	80 	156
f 44 	214 	42
f 42 	214 	40
f 96 	75 	131
f 77 	162 	161
f 161 	160 	77
f 160 	158 	77
f 159 	96 	179
f 97 	179 	96
f 99 	179 	98
f 101 	179 	100
f 97 	98 	179
f 96 	131 	134
f 96 	134 	97
f 179 	165 	150
f 153 	179 	150
f 153 	155 	179
f 157 	159 	179
f 148 	150 	165
f 97 	134 	136
f 97 	136 	98
f 162 	77 	163
f 76 	163 	77
f 98 	136 	137
f 98 	137 	99
f 143 	138 	189
f 99 	137 	140
f 99 	140 	100
f 77 	167 	164
f 76 	77 	164
f 167 	77 	169
f 121 	123 	176
f 112 	118 	176
f 165 	123 	125
f 127 	165 	125
f 133 	135 	165
f 145 	146 	165
f 77 	78 	169
f 171 	169 	78
f 48 	214 	46
f 46 	214 	44
f 178 	91 	103
f 104 	176 	103
f 105 	176 	104
f 105 	106 	176
f 178 	103 	176
f 100 	140 	142
f 100 	142 	101
f 174 	172 	78
f 172 	171 	78
f 175 	174 	78
f 101 	142 	144
f 101 	144 	102
f 93 	178 	92
f 93 	94 	178
f 179 	92 	178
f 102 	144 	83
f 102 	83 	92
f 78 	165 	179
f 79 	103 	122
f 91 	122 	103
f 78 	179 	81
f 82 	176 	80
f 147 	104 	103
f 147 	103 	79
f 177 	188 	180
f 181 	180 	188
f 82 	178 	176
f 179 	178 	82
f 179 	82 	81
f 149 	105 	104
f 149 	104 	147
f 182 	181 	188
f 78 	77 	165
f 183 	182 	188
f 80 	176 	77
f 165 	77 	176
f 151 	106 	105
f 151 	105 	149
f 184 	183 	188
f 152 	107 	106
f 152 	106 	151
f 154 	108 	107
f 154 	107 	152
f 156 	109 	108
f 156 	108 	154
f 189 	187 	4
f 158 	110 	109
f 158 	109 	156
f 160 	111 	110
f 160 	110 	158
f 55 	53 	188
f 57 	55 	188
f 160 	112 	111
f 177 	57 	188
f 186 	188 	49
f 47 	186 	49
f 7 	187 	9
f 161 	112 	160
f 162 	118 	112
f 162 	112 	161
f 29 	27 	186
f 187 	186 	25
f 25 	23 	187
f 19 	17 	187
f 11 	187 	13
f 163 	121 	118
f 163 	118 	162
f 15 	13 	187
f 11 	9 	187
f 5 	1 	187
f 1 	4 	187
f 143 	189 	4
f 7 	5 	187
f 15 	187 	17
f 76 	123 	121
f 76 	121 	163
f 170 	166 	189
f 166 	168 	189
f 188 	189 	168
f 168 	185 	188
f 185 	184 	188
f 164 	125 	123
f 164 	123 	76
f 191 	217 	190
f 19 	187 	21
f 167 	127 	125
f 167 	125 	164
f 192 	217 	191
f 23 	21 	187
f 169 	129 	127
f 169 	127 	167
f 193 	217 	192
f 194 	217 	193
f 171 	130 	129
f 171 	129 	169
f 195 	217 	194
f 27 	25 	186
f 196 	217 	195
f 197 	217 	196
f 172 	132 	130
f 172 	130 	171
f 29 	186 	31
f 174 	133 	132
f 174 	132 	172
f 31 	186 	33
f 133 	174 	175
f 133 	175 	135
f 33 	186 	35
f 67 	135 	175
f 190 	217 	201
f 200 	201 	217
f 39 	37 	186
f 35 	186 	37
f 135 	67 	141
f 141 	67 	68
f 141 	68 	145
f 205 	218 	204
f 145 	68 	69
f 145 	69 	146
f 206 	218 	205
f 43 	41 	186
f 41 	39 	186
f 146 	69 	70
f 146 	70 	148
f 208 	218 	207
f 45 	43 	186
f 217 	218 	198
f 148 	70 	71
f 148 	71 	150
f 217 	197 	3
f 47 	45 	186
f 150 	71 	72
f 150 	72 	153
f 6 	216 	2
f 3 	2 	216
f 51 	49 	188
f 8 	10 	216
f 153 	72 	73
f 153 	73 	155
f 6 	8 	216
f 53 	51 	188
f 155 	73 	74
f 155 	74 	157
f 12 	14 	216
f 14 	16 	216
f 10 	12 	216
f 157 	74 	75
f 157 	75 	159
f 215 	216 	16
f 18 	215 	16
f 159 	75 	96
f 84 	113 	114
f 84 	114 	85
f 215 	18 	20
f 85 	114 	115
f 85 	115 	86
f 209 	173 	189
f 170 	189 	173
f 116 	87 	86
f 116 	86 	115
f 24 	215 	22
f 117 	88 	87
f 117 	87 	116
f 26 	28 	215
f 119 	89 	88
f 119 	88 	117
f 120 	90 	89
f 120 	89 	119
f 34 	214 	32
f 122 	91 	90
f 122 	90 	120
f 36 	214 	34
f 38 	214 	36
f 30 	32 	215
f 92 	83 	124
f 92 	124 	93
f 93 	124 	126
f 93 	126 	94
f 58 	202 	218
f 94 	126 	128
f 94 	128 	95
f 56 	58 	218
f 203 	218 	202
f 207 	218 	206
f 203 	204 	218
f 210 	209 	189
f 95 	128 	113
f 95 	113 	84
f 218 	214 	50
f 52 	218 	50
f 54 	218 	52
f 54 	56 	218
f 48 	50 	214
f 211 	210 	189
f 213 	212 	189
f 212 	211 	189
f 20 	22 	215
f 24 	26 	215
f 28 	30 	215
f 215 	32 	214
f 217 	3 	216
f 208 	198 	218
f 199 	217 	198
f 199 	200 	217
f 186 	214 	218
f 186 	218 	188
f 189 	216 	187
f 189 	217 	216
f 218 	217 	189
f 218 	189 	188
f 186 	187 	215
f 186 	215 	214
f 215 	187 	216
f 190 	173 	209
f 190 	209 	210
f 190 	210 	191
f 191 	210 	211
f 191 	211 	192
f 212 	193 	192
f 212 	192 	211
f 213 	194 	193
f 213 	193 	212
f 139 	195 	194
f 139 	194 	213
f 138 	196 	195
f 138 	195 	139
f 143 	197 	196
f 143 	196 	138
f 198 	168 	166
f 198 	166 	199
f 199 	166 	170
f 199 	170 	200
f 200 	170 	173
f 200 	173 	201
f 201 	173 	190
f 202 	57 	177
f 202 	177 	180
f 202 	180 	203
f 203 	180 	181
f 203 	181 	204
f 204 	181 	182
f 204 	182 	205
f 205 	182 	183
f 205 	183 	206
f 206 	183 	184
f 206 	184 	207
f 207 	184 	185
f 207 	185 	208
f 208 	185 	168
f 208 	168 	198
f 197 	143 	4
f 197 	4 	3
# 432 faces

 #end of obj_0

